inDegrees=no
num_controls=7
num_derivatives=13
num_iterations=176
num_multipliers=7
num_parameters=0
num_slacks=7
num_states=26
objective=5.225331
objective_accelerations=0.465398
objective_balance=0.078311
objective_effort=0.416596
objective_height=4.203217
objective_ligament=0.061810
solver_duration=2062.451500
status=Solve_Succeeded
success=true
DataType=double
version=3
OpenSimVersion=4.4-2022-07-23-0e9fedc
endheader
time	/jointset/ground_pelvis/pelvis_tilt/value	/jointset/ground_pelvis/pelvis_tx/value	/jointset/ground_pelvis/pelvis_ty/value	/jointset/hip_l/hip_flexion_l/value	/jointset/hip_l/hip_adduction_l/value	/jointset/hip_l/hip_rotation_l/value	/jointset/back/lumbar_extension/value	/jointset/patellofemoral_l/patellar_flexion_l/value	/jointset/knee_l/knee_flexion_l/value	/jointset/knee_l/knee_adduction_l/value	/jointset/knee_l/knee_rotation_l/value	/jointset/ankle_l/ankle_angle_l/value	/jointset/subtalar_l/subtalar_angle_l/value	/jointset/ground_pelvis/pelvis_tilt/speed	/jointset/ground_pelvis/pelvis_tx/speed	/jointset/ground_pelvis/pelvis_ty/speed	/jointset/hip_l/hip_flexion_l/speed	/jointset/hip_l/hip_adduction_l/speed	/jointset/hip_l/hip_rotation_l/speed	/jointset/back/lumbar_extension/speed	/jointset/patellofemoral_l/patellar_flexion_l/speed	/jointset/knee_l/knee_flexion_l/speed	/jointset/knee_l/knee_adduction_l/speed	/jointset/knee_l/knee_rotation_l/speed	/jointset/ankle_l/ankle_angle_l/speed	/jointset/subtalar_l/subtalar_angle_l/speed	/forceset/tau_hip_flexion_l	/forceset/tau_hip_adduction_l	/forceset/tau_hip_rotation_l	/forceset/tau_knee_flexion_l	/forceset/tau_ankle_angle_l	/forceset/tau_subtalar_angle_l	/forceset/tau_lumbar_extension	lambda_cid13_p0	lambda_cid13_p1	lambda_cid13_p2	lambda_cid13_p3	lambda_cid13_p4	lambda_cid13_p5	lambda_cid14_p0	/jointset/ground_pelvis/pelvis_tilt/accel	/jointset/ground_pelvis/pelvis_tx/accel	/jointset/ground_pelvis/pelvis_ty/accel	/jointset/hip_l/hip_flexion_l/accel	/jointset/hip_l/hip_adduction_l/accel	/jointset/hip_l/hip_rotation_l/accel	/jointset/back/lumbar_extension/accel	/jointset/patellofemoral_l/patellar_flexion_l/accel	/jointset/knee_l/knee_flexion_l/accel	/jointset/knee_l/knee_adduction_l/accel	/jointset/knee_l/knee_rotation_l/accel	/jointset/ankle_l/ankle_angle_l/accel	/jointset/subtalar_l/subtalar_angle_l/accel	gamma_cid13_p0	gamma_cid13_p1	gamma_cid13_p2	gamma_cid13_p3	gamma_cid13_p4	gamma_cid13_p5	gamma_cid14_p0
0.5	-0.443324083172463	-0.07391967506036619	0.7852857849565218	1.173348199272056	-0.3076677491860998	-0.09426808593500458	-0.3204532672774118	0.5570615054251202	0.5570615054251417	-0.1744922777609667	0.1745297926192016	-0.01642192629465246	-0.05618049174380096	-0.7527549435505265	-0.2869458486338419	-0.4036917815339923	2.136861708974849	-0.06322238015770415	0.4898584563878543	-0.627743899556345	1.430974302999292	1.430974302999232	-0.0007227777786251991	1.446770404014573e-05	0.1105734099658108	-0.05588576854978235	-0.2402990665576224	0.01505042408861294	-0.0185377371074584	-0.1775671013768836	0.1516218118564963	0.04475438276105734	0.2159260014466655	9.467033384722429	-24.16036265972523	6.95142771885947	-4.565882463449939	-610.9055750078772	-64.23221124306488	-35.14669622318882	0.4990494910102077	0.6163567507915948	-0.2149238769760759	-1.373201738402386	0.4228181225824925	-0.2160240332479958	1.596657296446441	-0.8465604010300688	-0.8465604010300737	0.02459210083178302	-0.03461935654609464	0.1111129815155085	0.4315314035806613	2.054460829275576e-08	-7.781675961183236e-07	7.512352003387278e-08	-1.277255217632699e-07	-1.212289760212728e-07	-2.130860416757291e-08	-1.019436156477754e-07
0.51	-0.450825197037186	-0.07675797489988941	0.7812389382533291	1.194644591733574	-0.3082796076453619	-0.08938210229008402	-0.3266507017540835	0.5713270216559323	0.5713270216559556	-0.1744992310770341	0.1745297352831053	-0.01531109973729466	-0.05671858576523625	-0.7473713998995669	-0.2806866772052986	-0.4055973962099575	2.122135720406874	-0.0591573830910029	0.4872671465505959	-0.6116725827049733	1.421934281897451	1.421934281897417	-0.000670259612471017	-1.720417067244018e-05	0.1115628964623219	-0.05174283060082407	-0.2482384158280964	0.0160187125168646	-0.01852303427503125	-0.1782191680789178	0.1516786405773231	0.04565160126381927	0.2220241397127502	9.289204161210074	-24.41135458230419	6.868613666575316	-4.608883438125611	-614.6664091177454	-63.94684115427328	-34.50075178989812	0.5724667131774224	0.6347885163460808	-0.166379279146314	-1.564462848443881	0.3972285404661905	-0.2914616668331398	1.622930840440104	-0.9619019579127217	-0.9619019579086638	-0.004907969754502543	0.01380726008172953	0.08851179411220654	0.4043158032572861	1.65140967151965e-08	-7.396147884341974e-07	7.58770280249539e-08	-1.230920761107029e-07	-1.131962808486103e-07	-1.239757722454341e-08	-9.945880524519759e-08
0.52	-0.4582695834831961	-0.07953286478963496	0.777175435600129	1.21578529122292	-0.308851038525606	-0.08452418718510564	-0.3326853106700514	0.5854963018770952	0.5854963018771233	-0.1745057571402954	0.1745296109008664	-0.01419124925289275	-0.05721552224464124	-0.7414094598070606	-0.2742638586783135	-0.4070229715355279	2.105723114540947	-0.05513686435421473	0.4842447483986012	-0.5951787874153002	1.411727101069548	1.411727101069541	-0.0006373272167843405	1.058475237991486e-06	0.1123781953745638	-0.04765426014371017	-0.2561777650985739	0.01698700094512957	-0.01850833144262502	-0.1788712347809472	0.1517354692981548	0.04654881976659532	0.2281222779788253	9.103004742284281	-24.66249866421349	6.78767159811123	-4.632210168125921	-618.5547850921689	-63.70213732117456	-33.83254764389036	0.6147287793195622	0.6490861704799873	-0.1189160068970923	-1.710525197992961	0.4139224565998719	-0.3022416961953155	1.681152984106745	-1.079992346242233	-1.079992346242243	0.02067494673828933	-0.02463245242147341	0.07627546466171926	0.4206579052117941	1.264925818400174e-08	-6.98166297946478e-07	7.576766857018038e-08	-1.178992965408406e-07	-1.050016584081978e-07	-4.222962056881386e-09	-9.637854094219741e-08
0.53	-0.4656515615048731	-0.08224278141786293	0.7731000835766341	1.236753677756341	-0.3093824393826135	-0.07969843747167213	-0.3385529675070904	0.599557781928076	0.5995577819281135	-0.1745119228251701	0.1745297078374455	-0.01306408503677381	-0.05767179372192574	-0.7348945789456136	-0.2676985370869576	-0.4079659049445024	2.087687234496626	-0.05114990989504729	0.4808426442007694	-0.5782968324644001	1.400382391256522	1.400382391256531	-0.0005912136747647163	1.76454908020242e-05	0.1130274425215817	-0.0436080012987556	-0.263933904943976	0.01781784101918455	-0.01852774641924596	-0.1795562701093033	0.1518660537779287	0.04733007247956274	0.2340311543428713	8.942953878001761	-24.87068419054514	6.703109925631037	-4.651044407945765	-622.3441136849868	-63.39842966981755	-33.1448135784327	0.6835970188673665	0.6633716012433599	-0.0697729145214511	-1.890169876850009	0.3901773284111369	-0.3686776873464107	1.700078879785687	-1.189669027190505	-1.189669027188186	-0.002850491635374968	0.0146455126536069	0.05516429864511005	0.3955120513278518	9.020125049645105e-09	-6.55847165611797e-07	7.59230366557935e-08	-1.122581620505095e-07	-9.704411850322285e-08	3.503568101756693e-09	-9.301406891019053e-08
